<svg xmlns="http://www.w3.org/2000/svg" xmlns:xlink="http://www.w3.org/1999/xlink" width="140" zoomAndPan="magnify" viewBox="0 0 104.88 104.999996" height="140" preserveAspectRatio="xMidYMid meet" version="1.0"><defs><g/><clipPath id="id1"><path d="M 28.167969 11 L 76.601562 11 L 76.601562 66 L 28.167969 66 Z M 28.167969 11 " clip-rule="nonzero"/></clipPath><clipPath id="id2"><path d="M 31.859375 25.167969 L 73.09375 25.167969 L 73.09375 51.351562 L 31.859375 51.351562 Z M 31.859375 25.167969 " clip-rule="nonzero"/></clipPath></defs><g clip-path="url(#id1)"><path fill="rgb(98.039246%, 22.749329%, 22.749329%)" d="M 76.550781 27.5625 L 76.550781 48.917969 C 76.546875 49.949219 76.292969 50.910156 75.78125 51.804688 C 75.269531 52.695312 74.570312 53.402344 73.6875 53.921875 L 55.277344 64.59375 C 54.386719 65.109375 53.425781 65.367188 52.394531 65.367188 C 51.363281 65.367188 50.402344 65.109375 49.511719 64.59375 L 31.109375 53.921875 C 30.671875 53.667969 30.273438 53.363281 29.914062 53.003906 C 29.558594 52.648438 29.25 52.25 28.996094 51.808594 C 28.746094 51.371094 28.550781 50.90625 28.417969 50.417969 C 28.289062 49.925781 28.222656 49.425781 28.222656 48.917969 L 28.222656 27.5625 C 28.222656 27.054688 28.289062 26.554688 28.417969 26.0625 C 28.550781 25.574219 28.742188 25.109375 28.996094 24.667969 C 29.25 24.230469 29.558594 23.832031 29.914062 23.472656 C 30.273438 23.113281 30.671875 22.808594 31.109375 22.554688 L 49.519531 11.875 C 50.410156 11.359375 51.371094 11.105469 52.402344 11.105469 C 53.429688 11.105469 54.390625 11.359375 55.285156 11.875 L 73.695312 22.5625 C 74.578125 23.082031 75.273438 23.785156 75.785156 24.679688 C 76.292969 25.570312 76.550781 26.53125 76.550781 27.5625 Z M 76.550781 27.5625 " fill-opacity="1" fill-rule="nonzero"/></g><path fill="rgb(100%, 100%, 100%)" d="M 37.398438 45.636719 L 38.683594 46.347656 L 37.648438 43.382812 C 37.90625 43.28125 38.085938 43.035156 38.085938 42.746094 C 38.085938 42.527344 37.976562 42.332031 37.8125 42.203125 L 37.8125 36.804688 L 36.980469 36.804688 L 36.980469 42.203125 C 36.816406 42.332031 36.710938 42.527344 36.710938 42.746094 C 36.710938 43.035156 36.890625 43.28125 37.144531 43.382812 L 36.109375 46.347656 L 37.398438 45.636719 " fill-opacity="1" fill-rule="nonzero"/><g clip-path="url(#id2)"><path fill="rgb(100%, 100%, 100%)" d="M 38.957031 42.09375 L 38.957031 45.183594 L 52.476562 51.347656 L 66 45.183594 L 66 42.09375 L 52.476562 48.253906 Z M 38.957031 38.390625 L 38.957031 41.484375 L 52.476562 47.644531 L 66 41.484375 L 66 38.390625 L 52.476562 44.554688 Z M 43.921875 37.5625 C 43.921875 37.816406 43.714844 38.023438 43.457031 38.023438 L 39.464844 38.023438 L 52.476562 43.953125 L 73.089844 34.558594 L 52.476562 25.167969 L 31.867188 34.558594 L 37.449219 37.105469 L 43.457031 37.105469 C 43.714844 37.105469 43.921875 37.308594 43.921875 37.5625 " fill-opacity="1" fill-rule="nonzero"/></g><g fill="rgb(0%, 0%, 0%)" fill-opacity="1"><g transform="translate(33.047197, 82.681264)"><g><path d="M 5.695312 0.164062 C 8.164062 0.164062 10.558594 -1.242188 10.539062 -3.710938 C 10.539062 -5.675781 8.972656 -6.398438 6.828125 -7.496094 C 4.882812 -8.503906 3.980469 -9.097656 3.980469 -10.125 C 3.980469 -10.9375 4.539062 -11.515625 5.550781 -11.515625 C 6.847656 -11.515625 7.785156 -10.414062 8.398438 -9.550781 C 8.792969 -8.972656 9.007812 -8.703125 9.316406 -8.703125 C 9.730469 -8.703125 9.875 -9.046875 9.839844 -9.605469 C 9.800781 -10.359375 9.675781 -11.136719 9.53125 -11.839844 C 9.371094 -12.613281 9.117188 -12.773438 8.792969 -12.773438 C 8.398438 -12.773438 8.308594 -12.503906 7.839844 -12.503906 C 7.460938 -12.503906 6.667969 -12.773438 5.746094 -12.773438 C 3.136719 -12.773438 1.117188 -11.136719 1.117188 -9.027344 C 1.117188 -6.9375 2.523438 -6.234375 4.578125 -5.171875 C 6.054688 -4.398438 7.496094 -3.695312 7.496094 -2.578125 C 7.476562 -1.875 7.027344 -1.152344 5.910156 -1.171875 C 3.890625 -1.171875 2.792969 -2.613281 2.269531 -3.511719 C 1.890625 -4.125 1.765625 -4.359375 1.40625 -4.359375 C 1.046875 -4.359375 0.9375 -4.035156 0.953125 -3.476562 C 0.992188 -2.667969 1.117188 -1.800781 1.28125 -0.792969 C 1.40625 -0.0195312 1.65625 0.179688 1.980469 0.179688 C 2.378906 0.179688 2.433594 -0.214844 3.027344 -0.214844 C 3.476562 -0.214844 4.359375 0.164062 5.695312 0.164062 Z M 5.695312 0.164062 "/></g></g></g><g fill="rgb(0%, 0%, 0%)" fill-opacity="1"><g transform="translate(45.297247, 82.681264)"><g><path d="M 6.847656 0.179688 C 9.929688 0.179688 12.683594 -1.386719 12.683594 -4.199219 C 12.683594 -5.550781 11.839844 -6.359375 10.972656 -6.667969 C 13.40625 -7.371094 15.476562 -8.683594 15.476562 -10.648438 C 15.476562 -12.019531 14.199219 -12.542969 13.296875 -12.523438 C 12.289062 -12.503906 11.65625 -12.089844 11.332031 -11.65625 C 11.046875 -11.242188 11.0625 -10.59375 11.710938 -10.847656 C 11.875 -10.917969 12.144531 -10.972656 12.308594 -10.972656 C 12.773438 -10.972656 13.046875 -10.738281 13.046875 -10.324219 C 13.046875 -9.496094 11.984375 -8.703125 10.632812 -7.945312 C 9.710938 -7.441406 8.8125 -7.027344 8.125 -6.578125 C 7.207031 -5.980469 6.667969 -5.386719 6.667969 -4.558594 C 6.667969 -3.476562 7.695312 -3.386719 7.695312 -3.746094 C 7.695312 -4.488281 8.214844 -5.117188 9.082031 -5.117188 C 9.839844 -5.117188 10.46875 -4.539062 10.46875 -3.585938 C 10.46875 -2.304688 9.605469 -1.171875 7.550781 -1.171875 C 5.226562 -1.171875 3.855469 -2.722656 3.855469 -4.738281 C 3.855469 -5.875 4.269531 -6.738281 4.902344 -7.332031 C 5.839844 -7.007812 7.046875 -7.0625 7.046875 -7.855469 C 7.046875 -8.523438 6.269531 -8.632812 5.40625 -8.523438 C 4.863281 -8.902344 4.648438 -9.386719 4.648438 -9.980469 C 4.648438 -10.828125 5.296875 -11.40625 6.253906 -11.40625 C 6.8125 -11.40625 7.296875 -11.242188 7.839844 -10.917969 C 8.46875 -10.539062 8.917969 -11.191406 8.488281 -11.675781 C 7.800781 -12.449219 6.722656 -12.828125 5.476562 -12.828125 C 3.765625 -12.828125 2.164062 -11.785156 2.164062 -10.125 C 2.164062 -9.171875 2.683594 -8.449219 3.421875 -7.980469 C 2.035156 -7.351562 0.792969 -6.019531 0.792969 -4.234375 C 0.792969 -1.421875 3.53125 0.179688 6.847656 0.179688 Z M 6.847656 0.179688 "/></g></g></g><g fill="rgb(0%, 0%, 0%)" fill-opacity="1"><g transform="translate(62.195029, 82.681264)"><g><path d="M 5.152344 -4.035156 C 5.152344 -2.234375 4.757812 -1.28125 3.945312 -1.28125 C 3.226562 -1.28125 2.957031 -1.945312 2.773438 -3.046875 C 2.683594 -3.746094 2.269531 -4.304688 1.421875 -4.304688 C 0.757812 -4.304688 0.125 -3.875 0.125 -2.917969 C 0.125 -1.316406 1.351562 0.179688 3.765625 0.179688 C 7.640625 0.179688 8.164062 -2.289062 8.164062 -5.421875 L 8.144531 -9.40625 C 8.144531 -11.605469 9.371094 -11.0625 9.371094 -12.035156 C 9.371094 -12.46875 9.082031 -12.613281 8.324219 -12.613281 L 5.007812 -12.613281 C 4.199219 -12.613281 3.945312 -12.46875 3.945312 -12.035156 C 3.945312 -11.0625 5.152344 -11.605469 5.152344 -9.40625 Z M 5.152344 -4.035156 "/></g></g></g><g fill="rgb(0%, 0%, 0%)" fill-opacity="1"><g transform="translate(24.76221, 92.777072)"><g><path d="M 1.949219 -2.527344 C 2.597656 -2.585938 2.8125 -2.945312 2.816406 -3.3125 C 2.816406 -3.882812 2.367188 -4.261719 1.410156 -4.261719 L 0.578125 -4.261719 C 0.402344 -4.261719 0.304688 -4.265625 0.304688 -4.167969 C 0.304688 -4.003906 0.640625 -4.167969 0.640625 -3.546875 L 0.640625 -0.710938 C 0.640625 -0.0898438 0.304688 -0.253906 0.304688 -0.0898438 C 0.304688 0.0078125 0.402344 0 0.578125 0 L 1.492188 0 C 2.636719 0 3.378906 -0.296875 3.378906 -1.316406 C 3.378906 -2.003906 2.75 -2.453125 1.949219 -2.527344 Z M 1.015625 -3.777344 C 1.015625 -4.027344 1.144531 -4.058594 1.453125 -4.058594 C 2.007812 -4.058594 2.398438 -3.765625 2.398438 -3.28125 C 2.398438 -2.847656 2.160156 -2.640625 1.394531 -2.640625 C 1.175781 -2.640625 1.015625 -2.640625 1.015625 -2.757812 Z M 1.484375 -0.199219 C 1.089844 -0.199219 1.015625 -0.328125 1.015625 -0.625 L 1.015625 -2.171875 C 1.015625 -2.332031 1.035156 -2.429688 1.425781 -2.429688 C 2.390625 -2.429688 2.945312 -2.003906 2.945312 -1.257812 C 2.945312 -0.492188 2.453125 -0.199219 1.484375 -0.199219 Z M 1.484375 -0.199219 "/></g></g></g><g fill="rgb(0%, 0%, 0%)" fill-opacity="1"><g transform="translate(29.038823, 92.777072)"><g><path d="M 3.347656 -0.949219 C 3.273438 -0.957031 3.21875 -0.914062 3.128906 -0.699219 C 2.980469 -0.347656 2.890625 -0.207031 2.292969 -0.207031 L 1.789062 -0.199219 C 1.101562 -0.199219 1.015625 -0.285156 1.015625 -0.511719 L 1.015625 -2.183594 C 1.015625 -2.496094 1.210938 -2.484375 1.503906 -2.484375 L 1.734375 -2.484375 C 2.464844 -2.476562 2.496094 -1.898438 2.664062 -1.953125 C 2.746094 -1.976562 2.75 -2.027344 2.695312 -2.269531 L 2.59375 -2.671875 C 2.554688 -2.828125 2.507812 -2.878906 2.453125 -2.878906 C 2.300781 -2.878906 2.433594 -2.683594 1.734375 -2.683594 L 1.503906 -2.683594 C 1.210938 -2.683594 1.015625 -2.675781 1.015625 -2.980469 L 1.015625 -3.773438 C 1.015625 -3.96875 1.101562 -4.058594 1.800781 -4.058594 L 2.171875 -4.058594 C 2.621094 -4.058594 2.878906 -3.859375 3.0625 -3.476562 C 3.144531 -3.316406 3.183594 -3.242188 3.285156 -3.261719 C 3.367188 -3.28125 3.359375 -3.339844 3.347656 -3.4375 C 3.3125 -3.722656 3.25 -3.929688 3.195312 -4.09375 C 3.152344 -4.234375 3.128906 -4.265625 2.792969 -4.265625 L 0.578125 -4.261719 C 0.402344 -4.261719 0.304688 -4.265625 0.304688 -4.167969 C 0.304688 -4.003906 0.640625 -4.167969 0.640625 -3.546875 L 0.640625 -0.710938 C 0.640625 -0.0898438 0.304688 -0.253906 0.304688 -0.0898438 C 0.304688 0.0078125 0.402344 0 0.578125 0 L 2.84375 0 C 3.242188 0 3.285156 -0.0664062 3.324219 -0.183594 C 3.371094 -0.351562 3.390625 -0.515625 3.414062 -0.785156 C 3.421875 -0.863281 3.414062 -0.9375 3.347656 -0.949219 Z M 3.347656 -0.949219 "/></g></g></g><g fill="rgb(0%, 0%, 0%)" fill-opacity="1"><g transform="translate(33.388425, 92.777072)"><g><path d="M 1.742188 0.0625 C 2.539062 0.0546875 3.242188 -0.417969 3.207031 -1.164062 C 3.171875 -1.917969 2.433594 -2.136719 1.820312 -2.429688 C 1.273438 -2.691406 0.765625 -2.835938 0.765625 -3.359375 C 0.765625 -3.765625 1.058594 -4.082031 1.625 -4.082031 C 2.210938 -4.082031 2.566406 -3.632812 2.757812 -3.324219 C 2.816406 -3.207031 2.890625 -3.160156 2.964844 -3.160156 C 3.042969 -3.160156 3.050781 -3.238281 3.023438 -3.316406 C 2.964844 -3.640625 2.910156 -3.828125 2.867188 -3.984375 C 2.804688 -4.234375 2.792969 -4.308594 2.671875 -4.308594 C 2.59375 -4.308594 2.554688 -4.246094 2.429688 -4.246094 C 2.234375 -4.246094 2.039062 -4.308594 1.789062 -4.308594 C 0.820312 -4.308594 0.414062 -3.792969 0.414062 -3.285156 C 0.414062 -2.527344 1.15625 -2.269531 1.742188 -1.996094 C 2.265625 -1.753906 2.855469 -1.5625 2.816406 -0.996094 C 2.792969 -0.558594 2.476562 -0.160156 1.796875 -0.164062 C 1.070312 -0.175781 0.761719 -0.667969 0.585938 -1.113281 C 0.535156 -1.242188 0.457031 -1.289062 0.382812 -1.289062 C 0.304688 -1.289062 0.292969 -1.210938 0.308594 -1.113281 C 0.363281 -0.664062 0.417969 -0.414062 0.445312 -0.28125 C 0.488281 -0.03125 0.546875 0.0546875 0.664062 0.0546875 C 0.742188 0.0546875 0.785156 0 0.90625 0 C 1.09375 0 1.273438 0.0625 1.742188 0.0625 Z M 1.742188 0.0625 "/></g></g></g><g fill="rgb(0%, 0%, 0%)" fill-opacity="1"><g transform="translate(37.500813, 92.777072)"><g><path d="M 2.105469 -3.75 C 2.105469 -3.980469 2.191406 -4.070312 2.464844 -4.070312 C 2.988281 -4.070312 3.0625 -3.914062 3.25 -3.566406 C 3.351562 -3.371094 3.394531 -3.316406 3.476562 -3.316406 C 3.578125 -3.316406 3.585938 -3.402344 3.578125 -3.480469 C 3.574219 -3.753906 3.554688 -3.914062 3.503906 -4.082031 C 3.46875 -4.207031 3.425781 -4.265625 3.023438 -4.265625 L 0.808594 -4.261719 C 0.40625 -4.261719 0.359375 -4.191406 0.328125 -4.078125 C 0.28125 -3.90625 0.253906 -3.742188 0.253906 -3.476562 C 0.25 -3.394531 0.253906 -3.3125 0.359375 -3.3125 C 0.433594 -3.3125 0.480469 -3.367188 0.585938 -3.558594 C 0.773438 -3.90625 0.847656 -4.066406 1.371094 -4.066406 C 1.644531 -4.066406 1.726562 -3.972656 1.726562 -3.742188 L 1.726562 -0.796875 C 1.726562 -0.128906 1.386719 -0.273438 1.386719 -0.0898438 C 1.386719 -0.0195312 1.484375 0 1.667969 0 L 2.15625 0 C 2.34375 0 2.429688 -0.0195312 2.429688 -0.0898438 C 2.429688 -0.273438 2.105469 -0.128906 2.105469 -0.796875 Z M 2.105469 -3.75 "/></g></g></g><g fill="rgb(0%, 0%, 0%)" fill-opacity="1"><g transform="translate(42.045053, 92.777072)"><g/></g></g><g fill="rgb(0%, 0%, 0%)" fill-opacity="1"><g transform="translate(43.97385, 92.777072)"><g><path d="M 2.105469 -3.75 C 2.105469 -3.980469 2.191406 -4.070312 2.464844 -4.070312 C 2.988281 -4.070312 3.0625 -3.914062 3.25 -3.566406 C 3.351562 -3.371094 3.394531 -3.316406 3.476562 -3.316406 C 3.578125 -3.316406 3.585938 -3.402344 3.578125 -3.480469 C 3.574219 -3.753906 3.554688 -3.914062 3.503906 -4.082031 C 3.46875 -4.207031 3.425781 -4.265625 3.023438 -4.265625 L 0.808594 -4.261719 C 0.40625 -4.261719 0.359375 -4.191406 0.328125 -4.078125 C 0.28125 -3.90625 0.253906 -3.742188 0.253906 -3.476562 C 0.25 -3.394531 0.253906 -3.3125 0.359375 -3.3125 C 0.433594 -3.3125 0.480469 -3.367188 0.585938 -3.558594 C 0.773438 -3.90625 0.847656 -4.066406 1.371094 -4.066406 C 1.644531 -4.066406 1.726562 -3.972656 1.726562 -3.742188 L 1.726562 -0.796875 C 1.726562 -0.128906 1.386719 -0.273438 1.386719 -0.0898438 C 1.386719 -0.0195312 1.484375 0 1.667969 0 L 2.15625 0 C 2.34375 0 2.429688 -0.0195312 2.429688 -0.0898438 C 2.429688 -0.273438 2.105469 -0.128906 2.105469 -0.796875 Z M 2.105469 -3.75 "/></g></g></g><g fill="rgb(0%, 0%, 0%)" fill-opacity="1"><g transform="translate(48.51809, 92.777072)"><g><path d="M 2.226562 0.0625 C 3.3125 0.0625 3.777344 -0.722656 3.777344 -1.617188 L 3.785156 -3.546875 C 3.785156 -4.078125 4.109375 -3.957031 4.109375 -4.152344 C 4.109375 -4.242188 4.003906 -4.261719 3.851562 -4.261719 L 3.523438 -4.261719 C 3.335938 -4.261719 3.25 -4.234375 3.25 -4.152344 C 3.25 -3.960938 3.574219 -4.078125 3.566406 -3.546875 L 3.589844 -1.570312 C 3.589844 -0.808594 3.152344 -0.164062 2.300781 -0.164062 C 1.496094 -0.164062 1.011719 -0.632812 1.011719 -1.515625 L 1.011719 -3.449219 C 1.011719 -4.121094 1.351562 -3.972656 1.351562 -4.15625 C 1.351562 -4.230469 1.253906 -4.246094 1.070312 -4.246094 L 0.585938 -4.246094 C 0.390625 -4.246094 0.304688 -4.230469 0.304688 -4.15625 C 0.304688 -3.972656 0.632812 -4.121094 0.632812 -3.449219 L 0.632812 -1.578125 C 0.632812 -0.609375 1.257812 0.0625 2.226562 0.0625 Z M 2.226562 0.0625 "/></g></g></g><g fill="rgb(0%, 0%, 0%)" fill-opacity="1"><g transform="translate(53.530678, 92.777072)"><g><path d="M 2.105469 -3.75 C 2.105469 -3.980469 2.191406 -4.070312 2.464844 -4.070312 C 2.988281 -4.070312 3.0625 -3.914062 3.25 -3.566406 C 3.351562 -3.371094 3.394531 -3.316406 3.476562 -3.316406 C 3.578125 -3.316406 3.585938 -3.402344 3.578125 -3.480469 C 3.574219 -3.753906 3.554688 -3.914062 3.503906 -4.082031 C 3.46875 -4.207031 3.425781 -4.265625 3.023438 -4.265625 L 0.808594 -4.261719 C 0.40625 -4.261719 0.359375 -4.191406 0.328125 -4.078125 C 0.28125 -3.90625 0.253906 -3.742188 0.253906 -3.476562 C 0.25 -3.394531 0.253906 -3.3125 0.359375 -3.3125 C 0.433594 -3.3125 0.480469 -3.367188 0.585938 -3.558594 C 0.773438 -3.90625 0.847656 -4.066406 1.371094 -4.066406 C 1.644531 -4.066406 1.726562 -3.972656 1.726562 -3.742188 L 1.726562 -0.796875 C 1.726562 -0.128906 1.386719 -0.273438 1.386719 -0.0898438 C 1.386719 -0.0195312 1.484375 0 1.667969 0 L 2.15625 0 C 2.34375 0 2.429688 -0.0195312 2.429688 -0.0898438 C 2.429688 -0.273438 2.105469 -0.128906 2.105469 -0.796875 Z M 2.105469 -3.75 "/></g></g></g><g fill="rgb(0%, 0%, 0%)" fill-opacity="1"><g transform="translate(58.074917, 92.777072)"><g><path d="M 2.203125 0.0625 C 3.542969 0.0625 4.417969 -0.941406 4.417969 -2.300781 C 4.417969 -3.457031 3.65625 -4.320312 2.457031 -4.320312 C 1.148438 -4.320312 0.238281 -3.269531 0.238281 -1.960938 C 0.238281 -0.796875 0.980469 0.0625 2.203125 0.0625 Z M 2.429688 -0.214844 C 1.328125 -0.214844 0.613281 -1.066406 0.613281 -2.335938 C 0.613281 -3.144531 1.199219 -4.066406 2.265625 -4.066406 C 3.351562 -4.066406 4.023438 -3.175781 4.023438 -2.027344 C 4.023438 -1.113281 3.460938 -0.214844 2.429688 -0.214844 Z M 2.429688 -0.214844 "/></g></g></g><g fill="rgb(0%, 0%, 0%)" fill-opacity="1"><g transform="translate(63.440287, 92.777072)"><g><path d="M 2.597656 -1.769531 C 3.175781 -1.953125 3.515625 -2.3125 3.515625 -2.933594 C 3.515625 -3.621094 2.925781 -4.261719 1.5625 -4.261719 L 0.578125 -4.261719 C 0.402344 -4.261719 0.304688 -4.265625 0.304688 -4.167969 C 0.304688 -4.003906 0.640625 -4.167969 0.640625 -3.546875 L 0.640625 -0.796875 C 0.640625 -0.128906 0.304688 -0.273438 0.304688 -0.0898438 C 0.304688 -0.0195312 0.402344 0 0.578125 0 L 1.066406 0 C 1.257812 0 1.34375 -0.0195312 1.34375 -0.0898438 C 1.34375 -0.273438 1.015625 -0.128906 1.015625 -0.796875 L 1.015625 -1.578125 C 1.015625 -1.8125 1.179688 -1.78125 1.65625 -1.722656 C 2.105469 -1.667969 2.203125 -1.644531 2.335938 -1.410156 L 2.789062 -0.585938 C 2.980469 -0.226562 2.683594 -0.238281 2.683594 -0.117188 C 2.683594 -0.0195312 2.792969 0 2.988281 0 L 3.492188 0 C 3.597656 0 3.683594 -0.0195312 3.683594 -0.0898438 C 3.683594 -0.242188 3.445312 -0.171875 3.238281 -0.558594 Z M 2.105469 -1.917969 C 1.8125 -1.910156 1.015625 -1.960938 1.015625 -2.25 L 1.015625 -3.890625 C 1.015625 -4.015625 1.101562 -4.054688 1.558594 -4.046875 C 2.566406 -4.035156 3.074219 -3.480469 3.074219 -2.855469 C 3.074219 -2.183594 2.636719 -1.933594 2.105469 -1.917969 Z M 2.105469 -1.917969 "/></g></g></g><g fill="rgb(0%, 0%, 0%)" fill-opacity="1"><g transform="translate(68.002777, 92.777072)"><g><path d="M 0.640625 -0.796875 C 0.640625 -0.128906 0.304688 -0.273438 0.304688 -0.0898438 C 0.304688 -0.0195312 0.402344 0 0.578125 0 L 1.066406 0 C 1.257812 0 1.34375 -0.0195312 1.34375 -0.0898438 C 1.34375 -0.273438 1.015625 -0.128906 1.015625 -0.796875 L 1.015625 -3.460938 C 1.015625 -4.132812 1.355469 -3.984375 1.355469 -4.167969 C 1.355469 -4.242188 1.257812 -4.261719 1.078125 -4.261719 L 0.589844 -4.261719 C 0.402344 -4.261719 0.316406 -4.242188 0.316406 -4.167969 C 0.316406 -3.984375 0.640625 -4.132812 0.640625 -3.460938 Z M 0.640625 -0.796875 "/></g></g></g><g fill="rgb(0%, 0%, 0%)" fill-opacity="1"><g transform="translate(70.369512, 92.777072)"><g><path d="M 3.695312 -4.261719 C 3.511719 -4.261719 3.425781 -4.234375 3.425781 -4.152344 C 3.425781 -3.960938 3.742188 -4.078125 3.75 -3.546875 L 3.761719 -0.886719 L 0.816406 -4.191406 C 0.773438 -4.246094 0.742188 -4.261719 0.695312 -4.261719 L 0.554688 -4.261719 C 0.371094 -4.261719 0.273438 -4.265625 0.273438 -4.167969 C 0.273438 -4.003906 0.613281 -4.167969 0.613281 -3.546875 L 0.613281 -0.710938 C 0.613281 -0.183594 0.292969 -0.304688 0.292969 -0.109375 C 0.292969 -0.0195312 0.394531 0 0.546875 0 L 0.875 0 C 1.066406 0 1.148438 -0.0234375 1.148438 -0.109375 C 1.148438 -0.296875 0.828125 -0.183594 0.820312 -0.710938 L 0.808594 -3.628906 L 3.628906 -0.480469 C 3.730469 -0.363281 3.765625 -0.230469 3.765625 -0.117188 C 3.765625 -0.0546875 3.804688 0 3.851562 0 C 3.914062 0 3.960938 -0.0351562 3.960938 -0.144531 L 3.960938 -3.546875 C 3.960938 -4.078125 4.277344 -3.957031 4.277344 -4.152344 C 4.277344 -4.242188 4.175781 -4.261719 4.023438 -4.261719 Z M 3.695312 -4.261719 "/></g></g></g><g fill="rgb(0%, 0%, 0%)" fill-opacity="1"><g transform="translate(75.619312, 92.777072)"><g><path d="M 2.347656 0.0546875 C 3.105469 0.0351562 3.929688 -0.390625 3.929688 -0.742188 L 3.929688 -1.394531 C 3.929688 -2.027344 4.136719 -1.863281 4.136719 -2.0625 C 4.136719 -2.136719 4.054688 -2.15625 3.96875 -2.15625 L 3.183594 -2.160156 C 2.988281 -2.160156 2.902344 -2.140625 2.902344 -2.070312 C 2.902344 -1.84375 3.554688 -1.953125 3.554688 -1.394531 L 3.554688 -0.730469 C 3.554688 -0.4375 2.976562 -0.230469 2.445312 -0.230469 C 1.34375 -0.230469 0.625 -1.132812 0.640625 -2.289062 C 0.640625 -3.140625 1.222656 -4.027344 2.195312 -4.027344 C 3.007812 -4.035156 3.296875 -3.585938 3.554688 -3.238281 C 3.632812 -3.121094 3.699219 -3.050781 3.777344 -3.0625 C 3.851562 -3.074219 3.863281 -3.140625 3.847656 -3.230469 C 3.785156 -3.589844 3.71875 -3.828125 3.675781 -3.984375 C 3.613281 -4.234375 3.578125 -4.308594 3.460938 -4.308594 C 3.382812 -4.308594 3.347656 -4.246094 3.21875 -4.246094 C 3.023438 -4.246094 2.871094 -4.320312 2.488281 -4.320312 C 1.167969 -4.320312 0.238281 -3.324219 0.238281 -2.019531 C 0.238281 -0.875 0.996094 0.0742188 2.347656 0.0546875 Z M 2.347656 0.0546875 "/></g></g></g></svg>